<?xml version="1.0" encoding="UTF-8"?>
<svg id="Layer_1" xmlns="http://www.w3.org/2000/svg" viewBox="0 0 24 24">
  <defs>
    <style>
      .cls-1 {
        fill: #fff;
      }
    </style>
  </defs>
  <path class="cls-1" d="M12,2c1.1,0,2,.9,2,2,0,.74-.4,1.39-1,1.73v1.27h1c3.87,0,7,3.13,7,7h1c.55,0,1,.45,1,1v3c0,.55-.45,1-1,1h-1v1c0,1.1-.9,2-2,2H5c-1.1,0-2-.9-2-2v-1h-1c-.55,0-1-.45-1-1v-3c0-.55.45-1,1-1h1c0-3.87,3.13-7,7-7h1v-1.27c-.6-.34-1-.99-1-1.73,0-1.1.9-2,2-2M7.5,13c-1.38,0-2.5,1.12-2.5,2.5s1.12,2.5,2.5,2.5,2.5-1.12,2.5-2.5-1.12-2.5-2.5-2.5M16.5,13c-1.38,0-2.5,1.12-2.5,2.5s1.12,2.5,2.5,2.5,2.5-1.12,2.5-2.5-1.12-2.5-2.5-2.5Z"/>
</svg>